<mxfile host="app.diagrams.net" agent="Mozilla/5.0 (Windows NT 10.0; Win64; x64) AppleWebKit/537.36 (KHTML, like Gecko) Chrome/140.0.0.0 Safari/537.36" version="28.2.3">
  <diagram name="Page-1" id="M9QDj3xI2UDSRM4bRzDp">
    <mxGraphModel dx="1440" dy="1296" grid="1" gridSize="10" guides="1" tooltips="1" connect="1" arrows="1" fold="1" page="1" pageScale="1" pageWidth="827" pageHeight="1169" background="none" math="0" shadow="0">
      <root>
        <mxCell id="-MleyESL9_Mubh9_nKul-0" />
        <mxCell id="-MleyESL9_Mubh9_nKul-1" parent="-MleyESL9_Mubh9_nKul-0" />
        <mxCell id="2x-FoqGZgGqfMUCBSjRW-0" value="yfinance" style="rounded=0;whiteSpace=wrap;html=1;" parent="-MleyESL9_Mubh9_nKul-1" vertex="1">
          <mxGeometry x="40" y="338.75" width="120" height="60" as="geometry" />
        </mxCell>
        <mxCell id="2x-FoqGZgGqfMUCBSjRW-1" value="alpha vantage" style="rounded=0;whiteSpace=wrap;html=1;" parent="-MleyESL9_Mubh9_nKul-1" vertex="1">
          <mxGeometry x="40" y="428.75" width="120" height="60" as="geometry" />
        </mxCell>
        <mxCell id="2x-FoqGZgGqfMUCBSjRW-2" value="Data Sources" style="text;html=1;align=center;verticalAlign=middle;resizable=0;points=[];autosize=1;strokeColor=none;fillColor=none;fontStyle=1" parent="-MleyESL9_Mubh9_nKul-1" vertex="1">
          <mxGeometry x="50" y="230" width="100" height="30" as="geometry" />
        </mxCell>
        <mxCell id="nt9nraaoCfBHpBIq72VR-17" style="edgeStyle=orthogonalEdgeStyle;rounded=0;orthogonalLoop=1;jettySize=auto;html=1;exitX=1;exitY=0.5;exitDx=0;exitDy=0;exitPerimeter=0;noEdgeStyle=1;orthogonal=1;" parent="-MleyESL9_Mubh9_nKul-1" source="nt9nraaoCfBHpBIq72VR-0" target="nt9nraaoCfBHpBIq72VR-16" edge="1">
          <mxGeometry relative="1" as="geometry">
            <Array as="points">
              <mxPoint x="672" y="495" />
              <mxPoint x="748" y="495" />
            </Array>
          </mxGeometry>
        </mxCell>
        <mxCell id="nt9nraaoCfBHpBIq72VR-0" value="postgresql" style="shape=cylinder3;whiteSpace=wrap;html=1;boundedLbl=1;backgroundOutline=1;size=15;" parent="-MleyESL9_Mubh9_nKul-1" vertex="1">
          <mxGeometry x="530" y="453.75" width="60" height="80" as="geometry" />
        </mxCell>
        <mxCell id="nt9nraaoCfBHpBIq72VR-1" value="economic calender" style="rounded=0;whiteSpace=wrap;html=1;" parent="-MleyESL9_Mubh9_nKul-1" vertex="1">
          <mxGeometry x="40" y="518.75" width="120" height="60" as="geometry" />
        </mxCell>
        <mxCell id="nt9nraaoCfBHpBIq72VR-2" value="COT" style="rounded=0;whiteSpace=wrap;html=1;" parent="-MleyESL9_Mubh9_nKul-1" vertex="1">
          <mxGeometry x="40" y="608.75" width="120" height="60" as="geometry" />
        </mxCell>
        <mxCell id="nt9nraaoCfBHpBIq72VR-11" value="Data Lake" style="text;html=1;align=center;verticalAlign=middle;resizable=0;points=[];autosize=1;strokeColor=none;fillColor=none;fontStyle=1" parent="-MleyESL9_Mubh9_nKul-1" vertex="1">
          <mxGeometry x="520" y="230" width="80" height="30" as="geometry" />
        </mxCell>
        <mxCell id="nt9nraaoCfBHpBIq72VR-12" value="" style="rounded=1;whiteSpace=wrap;html=1;fillColor=none;dashed=1;dashPattern=8 8;" parent="-MleyESL9_Mubh9_nKul-1" vertex="1">
          <mxGeometry x="920" y="291.25" width="380" height="460" as="geometry" />
        </mxCell>
        <mxCell id="nt9nraaoCfBHpBIq72VR-21" style="edgeStyle=orthogonalEdgeStyle;rounded=0;orthogonalLoop=1;jettySize=auto;html=1;exitX=1;exitY=0.5;exitDx=0;exitDy=0;exitPerimeter=0;entryX=0;entryY=0.5;entryDx=0;entryDy=0;noEdgeStyle=1;orthogonal=1;" parent="-MleyESL9_Mubh9_nKul-1" source="nt9nraaoCfBHpBIq72VR-13" target="nt9nraaoCfBHpBIq72VR-19" edge="1">
          <mxGeometry relative="1" as="geometry">
            <Array as="points">
              <mxPoint x="1232" y="506.25" />
              <mxPoint x="1308" y="506.25" />
            </Array>
          </mxGeometry>
        </mxCell>
        <mxCell id="nt9nraaoCfBHpBIq72VR-13" value="BigQuery" style="shape=cylinder3;whiteSpace=wrap;html=1;boundedLbl=1;backgroundOutline=1;size=15;" parent="-MleyESL9_Mubh9_nKul-1" vertex="1">
          <mxGeometry x="1160" y="466.25" width="60" height="80" as="geometry" />
        </mxCell>
        <mxCell id="nt9nraaoCfBHpBIq72VR-16" value="GCS" style="whiteSpace=wrap;html=1;aspect=fixed;" parent="-MleyESL9_Mubh9_nKul-1" vertex="1">
          <mxGeometry x="980" y="466.25" width="80" height="80" as="geometry" />
        </mxCell>
        <mxCell id="nt9nraaoCfBHpBIq72VR-18" style="edgeStyle=orthogonalEdgeStyle;rounded=0;orthogonalLoop=1;jettySize=auto;html=1;exitX=1;exitY=0.5;exitDx=0;exitDy=0;entryX=0;entryY=0.5;entryDx=0;entryDy=0;entryPerimeter=0;noEdgeStyle=1;orthogonal=1;" parent="-MleyESL9_Mubh9_nKul-1" source="nt9nraaoCfBHpBIq72VR-16" target="nt9nraaoCfBHpBIq72VR-13" edge="1">
          <mxGeometry relative="1" as="geometry">
            <Array as="points">
              <mxPoint x="1072" y="506.25" />
              <mxPoint x="1148" y="506.25" />
            </Array>
          </mxGeometry>
        </mxCell>
        <mxCell id="nt9nraaoCfBHpBIq72VR-25" style="edgeStyle=orthogonalEdgeStyle;rounded=0;orthogonalLoop=1;jettySize=auto;html=1;exitX=1;exitY=0.5;exitDx=0;exitDy=0;entryX=0;entryY=0.5;entryDx=0;entryDy=0;noEdgeStyle=1;orthogonal=1;" parent="-MleyESL9_Mubh9_nKul-1" source="nt9nraaoCfBHpBIq72VR-19" target="nt9nraaoCfBHpBIq72VR-22" edge="1">
          <mxGeometry relative="1" as="geometry">
            <Array as="points">
              <mxPoint x="1452" y="506.25" />
              <mxPoint x="1528" y="506.25" />
            </Array>
          </mxGeometry>
        </mxCell>
        <mxCell id="nt9nraaoCfBHpBIq72VR-19" value="Looker Studios" style="rounded=1;whiteSpace=wrap;html=1;" parent="-MleyESL9_Mubh9_nKul-1" vertex="1">
          <mxGeometry x="1320" y="476.25" width="120" height="60" as="geometry" />
        </mxCell>
        <mxCell id="nt9nraaoCfBHpBIq72VR-20" value="Data Warehouse&lt;div&gt;&lt;span style=&quot;font-weight: normal;&quot;&gt;(Google Cloud Platform, GCP)&lt;/span&gt;&lt;/div&gt;" style="text;html=1;align=center;verticalAlign=middle;resizable=0;points=[];autosize=1;strokeColor=none;fillColor=none;fontStyle=1" parent="-MleyESL9_Mubh9_nKul-1" vertex="1">
          <mxGeometry x="1030" y="236.25" width="190" height="40" as="geometry" />
        </mxCell>
        <mxCell id="nt9nraaoCfBHpBIq72VR-22" value="Website" style="rhombus;whiteSpace=wrap;html=1;" parent="-MleyESL9_Mubh9_nKul-1" vertex="1">
          <mxGeometry x="1540" y="466.25" width="80" height="80" as="geometry" />
        </mxCell>
        <mxCell id="pNfFULA2eBh76LOntFVm-0" value="" style="endArrow=classic;html=1;rounded=0;" parent="-MleyESL9_Mubh9_nKul-1" edge="1">
          <mxGeometry relative="1" as="geometry">
            <mxPoint x="80" y="750" as="sourcePoint" />
            <mxPoint x="665" y="750" as="targetPoint" />
          </mxGeometry>
        </mxCell>
        <mxCell id="pNfFULA2eBh76LOntFVm-1" value="Orchestration:&amp;nbsp;&lt;span style=&quot;background-color: light-dark(#ffffff, var(--ge-dark-color, #121212)); color: light-dark(rgb(0, 0, 0), rgb(255, 255, 255));&quot;&gt;Airflow, Docker&lt;/span&gt;" style="edgeLabel;resizable=0;html=1;;align=center;verticalAlign=middle;fontSize=12;" parent="pNfFULA2eBh76LOntFVm-0" connectable="0" vertex="1">
          <mxGeometry relative="1" as="geometry">
            <mxPoint x="220" as="offset" />
          </mxGeometry>
        </mxCell>
        <mxCell id="pNfFULA2eBh76LOntFVm-6" value="" style="endArrow=classic;startArrow=classic;html=1;rounded=0;" parent="-MleyESL9_Mubh9_nKul-1" edge="1">
          <mxGeometry width="50" height="50" relative="1" as="geometry">
            <mxPoint x="80" y="780" as="sourcePoint" />
            <mxPoint x="665" y="780" as="targetPoint" />
          </mxGeometry>
        </mxCell>
        <mxCell id="pNfFULA2eBh76LOntFVm-7" value="Version Control: Git" style="edgeLabel;html=1;align=center;verticalAlign=middle;resizable=0;points=[];fontSize=14;" parent="pNfFULA2eBh76LOntFVm-6" vertex="1" connectable="0">
          <mxGeometry x="-0.0906" y="-2" relative="1" as="geometry">
            <mxPoint as="offset" />
          </mxGeometry>
        </mxCell>
        <mxCell id="69lv1Ex3wzdSpeNYYW5h-2" style="edgeStyle=orthogonalEdgeStyle;rounded=0;orthogonalLoop=1;jettySize=auto;html=1;entryX=0;entryY=0.5;entryDx=0;entryDy=0;entryPerimeter=0;" edge="1" parent="-MleyESL9_Mubh9_nKul-1" source="2x-FoqGZgGqfMUCBSjRW-0" target="nt9nraaoCfBHpBIq72VR-0">
          <mxGeometry relative="1" as="geometry" />
        </mxCell>
        <mxCell id="69lv1Ex3wzdSpeNYYW5h-4" style="edgeStyle=orthogonalEdgeStyle;rounded=0;orthogonalLoop=1;jettySize=auto;html=1;entryX=0;entryY=0.5;entryDx=0;entryDy=0;entryPerimeter=0;" edge="1" parent="-MleyESL9_Mubh9_nKul-1" source="2x-FoqGZgGqfMUCBSjRW-1" target="nt9nraaoCfBHpBIq72VR-0">
          <mxGeometry relative="1" as="geometry" />
        </mxCell>
        <mxCell id="69lv1Ex3wzdSpeNYYW5h-6" style="edgeStyle=orthogonalEdgeStyle;rounded=0;orthogonalLoop=1;jettySize=auto;html=1;exitX=1;exitY=0.5;exitDx=0;exitDy=0;entryX=0;entryY=0.5;entryDx=0;entryDy=0;entryPerimeter=0;" edge="1" parent="-MleyESL9_Mubh9_nKul-1" source="nt9nraaoCfBHpBIq72VR-1" target="nt9nraaoCfBHpBIq72VR-0">
          <mxGeometry relative="1" as="geometry" />
        </mxCell>
        <mxCell id="69lv1Ex3wzdSpeNYYW5h-7" style="edgeStyle=orthogonalEdgeStyle;rounded=0;orthogonalLoop=1;jettySize=auto;html=1;exitX=1;exitY=0.5;exitDx=0;exitDy=0;entryX=0;entryY=0.5;entryDx=0;entryDy=0;entryPerimeter=0;" edge="1" parent="-MleyESL9_Mubh9_nKul-1" source="nt9nraaoCfBHpBIq72VR-2" target="nt9nraaoCfBHpBIq72VR-0">
          <mxGeometry relative="1" as="geometry" />
        </mxCell>
        <mxCell id="69lv1Ex3wzdSpeNYYW5h-8" value="ETL" style="text;html=1;align=center;verticalAlign=middle;resizable=0;points=[];autosize=1;strokeColor=none;fillColor=none;fontStyle=1" vertex="1" parent="-MleyESL9_Mubh9_nKul-1">
          <mxGeometry x="230" y="458.75" width="50" height="30" as="geometry" />
        </mxCell>
        <mxCell id="69lv1Ex3wzdSpeNYYW5h-11" value="ETL&lt;div&gt;&lt;span style=&quot;font-weight: normal;&quot;&gt;(Mainly Transform:&amp;nbsp;&lt;/span&gt;&lt;span style=&quot;font-weight: normal; background-color: transparent; color: light-dark(rgb(0, 0, 0), rgb(255, 255, 255));&quot;&gt;Using pandas, numpy to&amp;nbsp;&lt;/span&gt;&lt;/div&gt;&lt;div&gt;&lt;span style=&quot;font-weight: normal; background-color: transparent; color: light-dark(rgb(0, 0, 0), rgb(255, 255, 255));&quot;&gt;process data based on a set criteria)&lt;/span&gt;&lt;/div&gt;" style="text;html=1;align=center;verticalAlign=middle;resizable=0;points=[];autosize=1;strokeColor=none;fillColor=none;fontStyle=1" vertex="1" parent="-MleyESL9_Mubh9_nKul-1">
          <mxGeometry x="634" y="443.75" width="260" height="60" as="geometry" />
        </mxCell>
        <mxCell id="69lv1Ex3wzdSpeNYYW5h-13" value="" style="rounded=1;whiteSpace=wrap;html=1;fillColor=none;dashed=1;dashPattern=8 8;" vertex="1" parent="-MleyESL9_Mubh9_nKul-1">
          <mxGeometry x="20" y="280" width="170" height="450" as="geometry" />
        </mxCell>
        <mxCell id="69lv1Ex3wzdSpeNYYW5h-14" value="Analytics &amp;amp; BI" style="text;html=1;align=center;verticalAlign=middle;resizable=0;points=[];autosize=1;strokeColor=none;fillColor=none;fontStyle=1" vertex="1" parent="-MleyESL9_Mubh9_nKul-1">
          <mxGeometry x="1440" y="236.25" width="100" height="30" as="geometry" />
        </mxCell>
        <mxCell id="69lv1Ex3wzdSpeNYYW5h-15" value="" style="rounded=1;whiteSpace=wrap;html=1;fillColor=none;dashed=1;dashPattern=8 8;" vertex="1" parent="-MleyESL9_Mubh9_nKul-1">
          <mxGeometry x="490" y="280" width="140" height="460" as="geometry" />
        </mxCell>
        <mxCell id="69lv1Ex3wzdSpeNYYW5h-16" value="" style="rounded=1;whiteSpace=wrap;html=1;fillColor=none;dashed=1;dashPattern=8 8;" vertex="1" parent="-MleyESL9_Mubh9_nKul-1">
          <mxGeometry x="1320" y="291.25" width="310" height="460" as="geometry" />
        </mxCell>
        <mxCell id="69lv1Ex3wzdSpeNYYW5h-17" value="SQL" style="text;html=1;align=center;verticalAlign=middle;resizable=0;points=[];autosize=1;strokeColor=none;fillColor=none;fontStyle=1" vertex="1" parent="-MleyESL9_Mubh9_nKul-1">
          <mxGeometry x="1250" y="470" width="50" height="30" as="geometry" />
        </mxCell>
      </root>
    </mxGraphModel>
  </diagram>
</mxfile>
